<?xml version="1.0" encoding="utf-8"?>
<!-- Generator: Adobe Illustrator 27.2.0, SVG Export Plug-In . SVG Version: 6.00 Build 0)  -->
<svg version="1.1" id="Layer_1" xmlns="http://www.w3.org/2000/svg" xmlns:xlink="http://www.w3.org/1999/xlink" x="0px" y="0px"
	 viewBox="0 0 595.28 841.89" style="enable-background:new 0 0 595.28 841.89;" xml:space="preserve">
<style type="text/css">
	.st0{fill:#FFFC91;}
	.st1{fill:#942521;}
	.st2{fill:#FFFFFF;}
</style>
<path class="st0" d="M295.62,434.92c1.97-4.52,3.21-1.41,5.09-5.73c1.43,3.03,3.02,4.62,4.19,7.12c1.9-0.57,3.08-0.38,5.35-1.07
	c-0.17,1.88-0.14,3.48-0.47,5.01c-2.14,10.08-4.45,20.12-6.47,30.22c-0.57,2.83-1.78,4-4.63,3.85c-2.73-0.14-5.18-0.03-5.93-3.72
	c-2.22-10.91-5.01-21.71-6.84-32.68c-0.35-2.08,2-5.55,3.48-7.93C290.03,430.22,294.22,430.8,295.62,434.92z"/>
<path class="st0" d="M318.09,473.94c-4.01,0-7.27,0-11.14,0c0.28-2.15,0.39-3.91,0.75-5.62c2.73-12.87,5.52-25.72,8.28-38.58
	c0.24-1.14,0.64-2.32,0.53-3.44c-0.1-0.95-1.3,0.96-1.75,0.05c-0.73,0.71-1.21-1.48-1.65-0.62c-0.95,1.85-1.13,4.41-2.54,5.65
	c-2.52,2.23-5.11,2.2-6.18-1.94c-0.62-2.38-1.98-2.05-3.27-5.58c-2.02,4.1-3.23,4.61-5.05,8.29c-0.94-2.09-3.18-1.8-4.05-3.75
	c-2.91,1.72-4.03,1.46-7.25,3.37c-0.59-2.09-0.84-3.88-1.61-5.4c-0.55-1.1-1.42,1.03-2.34,0.12c-0.4,1.22-1.7-0.34-1.47,0.75
	c2.25,10.92,4.71,21.8,7.09,32.7c0.95,4.37,1.85,8.75,2.99,14.14c-3.27,0-6.02,0.27-8.67-0.13c-1.04-0.16-2.75-1.93-2.64-2.77
	c1.94-14.21-7.79-23.15-15.04-33.01c-6.84-9.3-11.17-19.17-11.05-30.87c0.2-19.79,12.95-37.3,31.77-43.36
	c18.76-6.05,40.15,0.71,51.35,16.23c11.88,16.45,12.06,37.99,0.46,54.21c-4.26,5.96-8.36,12.04-12.78,17.87
	c-3.69,4.87-5.59,10.09-4.77,16.23C318.28,470.1,318.09,471.77,318.09,473.94z"/>
<path class="st1" d="M297.75,478.01c-6.5,0-13,0-19.49,0c-2.32,0-4.78-0.24-4.2-3.37c2.7-14.62-6.21-24.51-14.11-34.73
	c-5.94-7.68-10.03-16-11.4-25.7c-3.72-26.42,15.17-51.7,41.66-55.56c27.15-3.96,52.94,14.73,56.91,41.23
	c2.08,13.88-1.07,26.44-9.4,37.72c-2.77,3.75-5.39,7.62-8.28,11.27c-5.54,7.02-9.17,14.57-7.73,23.86c0.64,4.13-1.33,5.54-5.46,5.33
	C310.09,477.76,303.91,477.99,297.75,478.01z M316.36,473.96c0.88,0,1.6-0.71,1.63-1.59c0.04-1.44,0.1-2.66-0.06-3.85
	c-0.82-6.15,1.08-11.36,4.77-16.23c4.42-5.83,8.52-11.92,12.78-17.87c11.6-16.22,11.42-37.76-0.46-54.21
	c-11.21-15.52-32.6-22.27-51.35-16.23c-18.82,6.07-31.57,23.58-31.77,43.36c-0.12,11.7,4.21,21.57,11.05,30.87
	c7.25,9.86,16.98,18.8,15.04,33.01c-0.11,0.83,1.6,2.61,2.64,2.77c2.1,0.32,4.26,0.22,6.69,0.16c1.02-0.02,1.77-0.97,1.56-1.97
	c-0.95-4.52-1.75-8.36-2.58-12.2c-2.38-10.9-4.83-21.78-7.09-32.7c-0.1-0.46,0.02-0.97,0.21-1.49c0.4-1.09,1.81-1.41,2.64-0.61
	c0.39,0.37,0.73,0.77,0.96,1.23c0.49,0.98,0.77,2.07,1.06,3.27c0.26,1.06,1.48,1.58,2.42,1.02c1.87-1.11,3.59-2.13,5.35-3.17
	c0.84-0.5,1.92-0.15,2.32,0.74l0.35,0.77c0.56,1.24,2.33,1.27,2.94,0.03l2.22-4.51c0.58-1.19,2.43-1.1,2.94,0.22
	c0.68,1.75,1.23,3.2,1.62,4.69c1.08,4.14,3.67,4.17,6.18,1.94c1.4-1.24,1.59-3.8,2.54-5.65c0.14-0.26,0.32-0.5,0.53-0.73
	c0.77-0.82,2.18-0.58,2.63,0.45c0.12,0.28,0.21,0.56,0.24,0.85c0.11,1.12-0.28,2.3-0.53,3.44c-2.76,12.86-5.54,25.71-8.28,38.58
	c-0.26,1.2-0.39,2.43-0.54,3.8c-0.11,0.97,0.65,1.82,1.62,1.82H316.36z M291.27,431.26L291.27,431.26
	c-0.68-0.25-1.47,0.23-1.87,0.56c-2.05,1.71-3.79,4.31-3.49,6.1c1.83,10.97,4.62,21.77,6.84,32.68c0.75,3.68,3.2,3.58,5.93,3.72
	c2.85,0.15,4.07-1.02,4.63-3.85c2.02-10.1,4.33-20.14,6.47-30.22c0.18-0.85,0.25-1.73,0.31-2.66c0.07-1.13-1.02-1.99-2.1-1.66
	l-2.25,0.68c-0.78,0.23-1.61-0.13-1.95-0.87c-0.51-1.08-1.01-2.15-1.55-3.29c-0.6-1.27-2.41-1.24-2.97,0.04l-1.38,3.18
	c-0.89,2.04-3.82,1.92-4.54-0.19l-1.09-3.21C292.1,431.8,291.74,431.43,291.27,431.26z"/>
<path class="st1" d="M297.76,493.91c-5.32,0-10.64,0.11-15.95-0.03c-5.27-0.14-8.53-3.08-8.37-7.23c0.16-4.01,3.25-6.55,8.39-6.58
	c10.47-0.07,20.94-0.02,31.41-0.01c0.83,0,1.67,0.01,2.49,0.15c3.87,0.66,6.54,2.66,6.54,6.86c0,4.53-2.95,6.59-7.06,6.76
	c-5.81,0.24-11.63,0.06-17.45,0.06C297.76,493.89,297.76,493.9,297.76,493.91z M297.56,490.02c0,0.01,0,0.03,0,0.04
	c5.48,0,10.97,0.24,16.42-0.15c0.2-0.01,0.4-0.06,0.59-0.12c2.77-0.91,2.71-5.08-0.15-5.64c-0.13-0.02-0.26-0.04-0.39-0.04
	c-10.78-0.25-21.58-0.25-32.36-0.02c-0.27,0.01-0.53,0.07-0.79,0.18c-2.33,0.95-2.36,4.36-0.06,5.39c0.27,0.12,0.54,0.2,0.82,0.22
	C286.92,490.24,292.25,490.02,297.56,490.02z"/>
<path class="st1" d="M225.45,456.58c6.63-4.55,12.92-8.9,19.27-13.17c0.36-0.24,1.37-0.03,1.7,0.32c0.33,0.35,0.44,1.53,0.2,1.7
	c-6.36,4.31-12.77,8.54-19.22,12.73C227.29,458.23,226.71,457.6,225.45,456.58z"/>
<path class="st1" d="M211.86,410.04c8.04-0.15,15.69-0.31,23.34-0.38c0.44,0,1.16,0.73,1.24,1.2c0.08,0.48-0.48,1.52-0.76,1.53
	c-7.68,0.09-15.37,0.09-23.05,0.04C212.49,412.43,212.35,411.59,211.86,410.04z"/>
<path class="st1" d="M220.88,363.47c6.96,4.02,13.6,7.83,20.19,11.72c0.38,0.22,0.62,1.22,0.44,1.67c-0.18,0.45-1.19,1.06-1.44,0.91
	c-6.63-3.88-13.21-7.85-19.76-11.86C220.18,365.84,220.5,365.04,220.88,363.47z"/>
<path class="st1" d="M252.45,332.97c4.24,6.83,8.3,13.32,12.27,19.86c0.23,0.37-0.03,1.37-0.4,1.68c-0.37,0.31-1.55,0.37-1.7,0.12
	c-4.01-6.55-7.94-13.15-11.83-19.78C250.72,334.73,251.38,334.18,252.45,332.97z"/>
<path class="st1" d="M302.59,323.45c0.31,8.04,0.63,15.68,0.85,23.33c0.01,0.44-0.7,1.18-1.18,1.27c-0.47,0.09-1.53-0.45-1.54-0.73
	c-0.25-7.68-0.4-15.36-0.51-23.04C300.21,324.13,301.06,323.97,302.59,323.45z"/>
<path class="st1" d="M347.47,335.72c-4.19,6.87-8.15,13.41-12.2,19.9c-0.23,0.37-1.24,0.59-1.68,0.4c-0.44-0.19-1.03-1.22-0.88-1.46
	c4.04-6.53,8.16-13.02,12.33-19.47C345.12,334.96,345.91,335.3,347.47,335.72z"/>
<path class="st1" d="M378.07,370.93c-7.1,3.77-13.85,7.38-20.64,10.91c-0.39,0.2-1.37-0.12-1.65-0.51
	c-0.29-0.39-0.26-1.57-0.01-1.71c6.81-3.56,13.66-7.04,20.53-10.47C376.43,369.09,376.94,369.78,378.07,370.93z"/>
<path class="st1" d="M385.05,413.23c-8.04,0.02-15.69,0.06-23.35,0c-0.44,0-1.15-0.75-1.22-1.22c-0.07-0.48,0.5-1.52,0.79-1.51
	c7.68,0.03,15.36,0.16,23.05,0.34C384.46,410.83,384.59,411.68,385.05,413.23z"/>
<path class="st1" d="M371.23,455.28c-6.9-4.12-13.49-8.03-20.02-12.01c-0.37-0.23-0.6-1.23-0.42-1.68c0.18-0.45,1.21-1.04,1.46-0.89
	c6.57,3.98,13.09,8.04,19.59,12.14C371.96,452.93,371.63,453.72,371.23,455.28z"/>
<path class="st2" d="M303.44,511.6c-3.63,5.03-7.87,5.01-10.87,0C296.24,511.6,299.7,511.6,303.44,511.6z"/>
<path class="st0" d="M297.56,490.02c-5.31,0-10.64,0.22-15.92-0.14c-0.39-0.03-0.78-0.17-1.16-0.39c-1.92-1.11-1.89-3.98,0.05-5.04
	c0.38-0.21,0.76-0.34,1.15-0.35c10.78-0.24,21.58-0.23,32.36,0.02c0.13,0,0.26,0.02,0.39,0.04c2.87,0.55,2.93,4.73,0.15,5.64
	c-0.2,0.06-0.39,0.11-0.59,0.12c-5.45,0.39-10.94,0.15-16.42,0.15C297.56,490.05,297.56,490.04,297.56,490.02z"/>
<rect x="289.17" y="430.89" transform="matrix(0.8868 -0.4622 0.4622 0.8868 -166.4957 182.8012)" class="st1" width="1.36" height="0.64"/>
</svg>
